<svg width="18" height="18" viewBox="0 0 18 18" fill="none" xmlns="http://www.w3.org/2000/svg">
<path d="M12.3983 11.7502C13.549 10.5044 14.2669 8.83637 14.2669 6.99942C14.2669 3.14603 11.1314 0 7.26749 0C3.40355 0 0.268066 3.14603 0.268066 6.99942C0.268066 10.8528 3.40355 13.9988 7.26749 13.9988C8.84052 13.9988 10.2868 13.4815 11.4587 12.6053L16.6634 17.81C16.79 17.9367 16.9484 18 17.1068 18C17.2651 18 17.434 17.9367 17.5502 17.81C17.793 17.5671 17.793 17.166 17.5502 16.9126L12.3983 11.7502ZM1.53493 6.99942C1.53493 3.84281 4.10033 1.26686 7.26749 1.26686C10.4241 1.26686 13 3.83226 13 6.99942C13 10.1666 10.4346 12.732 7.26749 12.732C4.10033 12.732 1.53493 10.156 1.53493 6.99942Z" fill="#6F6F6F"/>
</svg>
